# Created by FreeCAD <http://www.freecadweb.org>
v -645.500000 2721.219727 363.212463
v -645.500000 2416.029785 68.493866
v -645.500000 2421.265625 368.448181
v -645.500000 2715.984131 63.258144
v -345.500000 2416.029785 68.493866
v -345.500000 2721.219727 363.212463
v -345.500000 2421.265625 368.448181
v -345.500000 2715.984131 63.258144
v -345.806427 2387.016846 76.001350
v -345.806427 2382.357178 -190.957977
v -300.462494 2344.739502 76.739311
v -300.462494 2340.079590 -190.220032
v -247.948624 2396.385254 -191.202850
v -293.292572 2443.322510 75.018532
v -247.948624 2401.045166 75.756493
v -293.292572 2438.662842 -191.940796
v -54.400002 2723.205078 70.133163
v -54.400002 2700.548096 -196.512024
v -54.400002 2705.208008 70.447311
v -54.400002 2718.545410 -196.826172
v 520.599976 2700.548096 -196.512024
v 520.599976 2723.205078 70.133163
v 520.599976 2705.208008 70.447311
v 520.599976 2718.545410 -196.826172
v -814.400024 1977.898071 -513.948364
v -814.400024 1573.687622 -407.877777
v -814.400024 1979.625854 -414.963470
v -814.400024 1571.959839 -506.862701
v -237.399994 1573.687622 -407.877777
v -237.399994 1977.898071 -513.948364
v -237.399994 1979.625854 -414.963470
v -237.399994 1571.959839 -506.862701
v -239.399994 2710.544434 -368.712708
v -239.399994 1574.959473 -506.915070
v -239.399994 1577.716919 -348.939148
v -239.399994 2707.786865 -526.688660
v 522.599976 1574.959473 -506.915070
v 522.599976 2710.544434 -368.712708
v 522.599976 1577.716919 -348.939148
v 522.599976 2707.786865 -526.688660
v -269.399994 2393.255371 75.892456
v -269.399994 2370.598389 -190.752731
v -269.399994 2375.258301 76.206604
v -269.399994 2388.595703 -191.066879
v -98.400002 2370.598389 -190.752731
v -98.400002 2393.255371 75.892456
v -98.400002 2375.258301 76.206604
v -98.400002 2388.595703 -191.066879
v -550.500000 2032.143433 -150.839798
v -550.500000 2011.585693 -354.512024
v -550.500000 2015.145996 -150.543106
v -550.500000 2028.583130 -354.808716
v -23.500000 2011.585693 -354.512024
v -23.500000 2032.143433 -150.839798
v -23.500000 2015.145996 -150.543106
v -23.500000 2028.583130 -354.808716
v -45.500000 2030.153809 -264.822449
v -45.500000 1903.128174 -150.588135
v -45.500000 2032.108521 -152.839493
v -45.500000 1901.173462 -262.571075
v -28.500000 1903.128174 -150.588135
v -28.500000 2030.153809 -264.822449
v -28.500000 2032.108521 -152.839493
v -28.500000 1901.173462 -262.571075
v -45.400002 1920.225586 -150.886566
v -45.400002 1901.064087 -274.570984
v -45.400002 1903.228149 -150.589874
v -45.400002 1918.061523 -274.867676
v 205.600006 1901.064087 -274.570984
v 205.600006 1920.225586 -150.886566
v 205.600006 1903.228149 -150.589874
v 205.600006 1918.061523 -274.867676
v 206.500000 2439.081543 -157.942932
v 206.500000 1900.894287 -278.568634
v 206.500000 1903.163086 -148.588440
v 206.500000 2436.812744 -287.923126
v 223.500000 1900.894287 -278.568634
v 223.500000 2439.081543 -157.942932
v 223.500000 1903.163086 -148.588440
v 223.500000 2436.812744 -287.923126
v -550.500000 2032.143433 -150.839798
v -550.500000 1744.546509 -239.834091
v -550.500000 1746.187012 -145.848404
v -550.500000 2030.502930 -244.825485
v -533.500000 1744.546509 -239.834091
v -533.500000 2032.143433 -150.839798
v -533.500000 1746.187012 -145.848404
v -533.500000 2030.502930 -244.825485
v -141.610718 2415.369385 75.506454
v -97.729492 2369.795898 -190.738724
v -97.729492 2374.455811 76.220612
v -141.610718 2410.709717 -191.452881
v -45.215618 2426.101563 -191.721542
v -89.096840 2471.675049 74.523636
v -45.215618 2430.761475 75.237793
v -89.096840 2467.015381 -192.435699
v -814.400024 2443.230469 74.019989
v -814.400024 2420.590820 -191.625351
v -814.400024 2425.233154 74.334137
v -814.400024 2438.588135 -191.939499
v -40.400002 2420.590820 -191.625351
v -40.400002 2443.230469 74.019989
v -40.400002 2425.233154 74.334137
v -40.400002 2438.588135 -191.939499
v -569.400024 2418.251709 75.456146
v -569.400024 2343.602539 -190.281525
v -569.400024 2348.262207 76.677818
v -569.400024 2413.591797 -191.503189
v -300.399994 2343.602539 -190.281525
v -300.399994 2418.251709 75.456146
v -300.399994 2348.262207 76.677818
v -300.399994 2413.591797 -191.503189
v -590.341614 2438.449707 75.103592
v -628.908875 2387.834229 -191.053589
v -628.908875 2392.494141 75.905746
v -590.341614 2433.789795 -191.855743
v -569.923462 2338.347168 -190.189789
v -531.356201 2388.962646 75.967392
v -569.923462 2343.006836 76.769554
v -531.356201 2384.302734 -190.991943
v 505.600006 2710.666504 -361.713776
v 505.600006 1918.327759 84.182350
v 505.600006 2718.206055 70.220428
v 505.600006 1910.788330 -347.751862
v 522.599976 1918.327759 84.182350
v 522.599976 2710.666504 -361.713776
v 522.599976 2718.206055 70.220428
v 522.599976 1910.788330 -347.751862
v -814.400024 2393.255371 75.892456
v -814.400024 2370.598389 -190.752731
v -814.400024 2375.258301 76.206604
v -814.400024 2388.595703 -191.066879
v -604.400024 2370.598389 -190.752731
v -604.400024 2393.255371 75.892456
v -604.400024 2375.258301 76.206604
v -604.400024 2388.595703 -191.066879
v -819.400024 2382.836426 -521.016602
v -819.400024 1582.379028 90.046364
v -819.400024 2393.255371 75.892456
v -819.400024 1571.959839 -506.862701
v -802.400024 1582.379028 90.046364
v -802.400024 2382.836426 -521.016602
v -802.400024 2393.255371 75.892456
v -802.400024 1571.959839 -506.862701
v -819.400024 2722.153076 67.151077
v -819.400024 2375.934326 -228.851654
v -819.400024 2381.204834 73.102348
v -819.400024 2716.882324 -234.802933
v -97.400002 2375.934326 -228.851654
v -97.400002 2722.153076 67.151077
v -97.400002 2381.204834 73.102348
v -97.400002 2716.882324 -234.802933
v -239.399994 1980.655518 -355.972443
v -239.399994 1571.959839 -506.862701
v -239.399994 1574.717407 -348.886780
v -239.399994 1977.898071 -513.948364
v 522.599976 1571.959839 -506.862701
v 522.599976 1980.655518 -355.972443
v 522.599976 1574.717407 -348.886780
v 522.599976 1977.898071 -513.948364
v -99.400002 2723.205078 70.133163
v -99.400002 2418.591064 -191.590454
v -99.400002 2423.250977 75.368889
v -99.400002 2718.545410 -196.826172
v -37.400002 2418.591064 -191.590454
v -37.400002 2723.205078 70.133163
v -37.400002 2423.250977 75.368889
v -37.400002 2718.545410 -196.826172
vn -1.000000 -0.000000 0.000000
vn -1.000000 0.000000 0.000000
vn 1.000000 0.000000 0.000000
vn 1.000000 -0.000000 0.000000
vn -0.000000 -0.017452 -0.999848
vn 0.000000 -0.017452 -0.999848
vn 0.000000 0.017452 0.999848
vn 0.000000 0.017452 0.999848
vn 0.000000 0.999848 -0.017452
vn 0.000000 0.999848 -0.017452
vn 0.000000 -0.999848 0.017453
vn 0.000000 -0.999848 0.017453
vn -0.681997 -0.731243 0.012764
vn -0.681999 -0.731241 0.012764
vn 0.681997 0.731243 -0.012764
vn 0.681999 0.731241 -0.012764
vn -0.000000 -0.017452 -0.999848
vn -0.000000 -0.017452 -0.999848
vn -0.000000 0.017452 0.999848
vn -0.000000 0.017452 0.999848
vn -0.731354 0.681894 -0.011902
vn -0.731354 0.681894 -0.011902
vn 0.731354 -0.681894 0.011903
vn 0.731354 -0.681894 0.011903
vn -1.000000 -0.000000 0.000000
vn -1.000000 0.000000 0.000000
vn 1.000000 0.000000 0.000000
vn 1.000000 -0.000000 0.000000
vn 0.000000 -0.017453 -0.999848
vn 0.000000 -0.017453 -0.999848
vn 0.000000 0.017453 0.999848
vn 0.000000 0.017453 0.999848
vn 0.000000 0.999848 -0.017452
vn 0.000000 0.999848 -0.017452
vn 0.000000 -0.999848 0.017453
vn 0.000000 -0.999848 0.017453
vn -1.000000 0.000000 0.000000
vn -1.000000 0.000000 0.000000
vn 1.000000 0.000000 0.000000
vn 1.000000 -0.000000 0.000000
vn -0.000000 -0.017452 -0.999848
vn 0.000000 -0.017452 -0.999848
vn 0.000000 0.017452 0.999848
vn 0.000000 0.017452 0.999848
vn 0.000000 0.999848 -0.017452
vn 0.000000 0.999848 -0.017452
vn 0.000000 -0.999848 0.017452
vn 0.000000 -0.999848 0.017452
vn -1.000000 -0.000000 0.000000
vn -1.000000 0.000000 0.000000
vn 1.000000 0.000000 0.000000
vn 1.000000 -0.000000 0.000000
vn -0.000000 -0.017452 -0.999848
vn 0.000000 -0.017452 -0.999848
vn 0.000000 0.017452 0.999848
vn 0.000000 0.017452 0.999848
vn 0.000000 0.999848 -0.017453
vn 0.000000 0.999848 -0.017453
vn 0.000000 -0.999848 0.017452
vn 0.000000 -0.999848 0.017452
vn -1.000000 -0.000000 0.000000
vn -1.000000 0.000000 0.000000
vn 1.000000 0.000000 0.000000
vn 1.000000 -0.000000 0.000000
vn -0.000000 -0.017453 -0.999848
vn 0.000000 -0.017453 -0.999848
vn 0.000000 0.017453 0.999848
vn 0.000000 0.017453 0.999848
vn 0.000000 0.999848 -0.017452
vn 0.000000 0.999848 -0.017452
vn 0.000000 -0.999848 0.017453
vn 0.000000 -0.999848 0.017453
vn -1.000000 -0.000000 0.000000
vn -1.000000 0.000000 0.000000
vn 1.000000 0.000000 0.000000
vn 1.000000 -0.000000 0.000000
vn -0.000000 -0.017452 -0.999848
vn 0.000000 -0.017452 -0.999848
vn 0.000000 0.017452 0.999848
vn 0.000000 0.017452 0.999848
vn 0.000000 0.999848 -0.017452
vn 0.000000 0.999848 -0.017452
vn 0.000000 -0.999848 0.017452
vn 0.000000 -0.999848 0.017452
vn -1.000000 0.000000 0.000000
vn -1.000000 0.000000 0.000000
vn 1.000000 0.000000 0.000000
vn 1.000000 -0.000000 0.000000
vn -0.000000 -0.017453 -0.999848
vn 0.000000 -0.017453 -0.999848
vn 0.000000 0.017452 0.999848
vn 0.000000 0.017452 0.999848
vn 0.000000 0.999848 -0.017453
vn 0.000000 0.999848 -0.017453
vn 0.000000 -0.999848 0.017453
vn 0.000000 -0.999848 0.017453
vn -1.000000 -0.000000 0.000000
vn -1.000000 0.000000 0.000000
vn 1.000000 0.000000 0.000000
vn 1.000000 -0.000000 0.000000
vn -0.000000 -0.017452 -0.999848
vn 0.000000 -0.017452 -0.999848
vn 0.000000 0.017452 0.999848
vn 0.000000 0.017452 0.999848
vn 0.000000 0.999848 -0.017452
vn 0.000000 0.999848 -0.017452
vn 0.000000 -0.999848 0.017452
vn 0.000000 -0.999848 0.017452
vn -1.000000 -0.000000 0.000000
vn -1.000000 0.000000 0.000000
vn 1.000000 0.000000 0.000000
vn 1.000000 -0.000000 0.000000
vn -0.000000 -0.017452 -0.999848
vn 0.000000 -0.017452 -0.999848
vn 0.000000 0.017452 0.999848
vn 0.000000 0.017452 0.999848
vn 0.000000 0.999848 -0.017452
vn 0.000000 0.999848 -0.017452
vn 0.000000 -0.999848 0.017452
vn 0.000000 -0.999848 0.017452
vn -1.000000 -0.000000 0.000000
vn -1.000000 0.000000 0.000000
vn 1.000000 0.000000 0.000000
vn 1.000000 -0.000000 0.000000
vn -0.000000 -0.017452 -0.999848
vn 0.000000 -0.017452 -0.999848
vn 0.000000 0.017452 0.999848
vn 0.000000 0.017452 0.999848
vn 0.000000 0.999848 -0.017452
vn 0.000000 0.999848 -0.017452
vn 0.000000 -0.999848 0.017452
vn 0.000000 -0.999848 0.017452
vn -0.681997 -0.731243 0.012764
vn -0.682000 -0.731241 0.012764
vn 0.681998 0.731243 -0.012764
vn 0.682000 0.731241 -0.012764
vn 0.000000 -0.017452 -0.999848
vn 0.000000 -0.017452 -0.999848
vn -0.000000 0.017452 0.999848
vn -0.000000 0.017452 0.999848
vn -0.731354 0.681894 -0.011902
vn -0.731354 0.681894 -0.011902
vn 0.731354 -0.681894 0.011903
vn 0.731354 -0.681894 0.011903
vn -1.000000 -0.000000 0.000000
vn -1.000000 0.000000 0.000000
vn 1.000000 0.000000 0.000000
vn 1.000000 -0.000000 0.000000
vn -0.000000 -0.017453 -0.999848
vn 0.000000 -0.017453 -0.999848
vn 0.000000 0.017453 0.999848
vn 0.000000 0.017453 0.999848
vn 0.000000 0.999848 -0.017452
vn 0.000000 0.999848 -0.017452
vn 0.000000 -0.999848 0.017452
vn 0.000000 -0.999848 0.017452
vn -1.000000 -0.000000 0.000000
vn -1.000000 0.000000 0.000000
vn 1.000000 0.000000 0.000000
vn 1.000000 -0.000000 0.000000
vn -0.000000 -0.017452 -0.999848
vn 0.000000 -0.017452 -0.999848
vn 0.000000 0.017452 0.999848
vn 0.000000 0.017452 0.999848
vn 0.000000 0.999848 -0.017453
vn 0.000000 0.999848 -0.017453
vn 0.000000 -0.999848 0.017452
vn 0.000000 -0.999848 0.017452
vn -0.766044 0.642691 -0.011218
vn -0.766044 0.642691 -0.011218
vn 0.766045 -0.642689 0.011218
vn 0.766044 -0.642691 0.011218
vn 0.000000 -0.017452 -0.999848
vn 0.000000 -0.017452 -0.999848
vn 0.000000 0.017452 0.999848
vn -0.000000 0.017452 0.999848
vn 0.642787 0.765928 -0.013370
vn 0.642787 0.765928 -0.013370
vn -0.642787 -0.765928 0.013370
vn -0.642789 -0.765926 0.013369
vn -1.000000 0.000000 0.000000
vn -1.000000 0.000000 0.000000
vn 1.000000 0.000000 0.000000
vn 1.000000 -0.000000 0.000000
vn -0.000000 -0.017452 -0.999848
vn 0.000000 -0.017452 -0.999848
vn 0.000000 0.017452 0.999848
vn 0.000000 0.017452 0.999848
vn 0.000000 0.999848 -0.017453
vn 0.000000 0.999848 -0.017453
vn 0.000000 -0.999848 0.017452
vn 0.000000 -0.999848 0.017452
vn -1.000000 -0.000000 0.000000
vn -1.000000 0.000000 0.000000
vn 1.000000 0.000000 0.000000
vn 1.000000 -0.000000 0.000000
vn -0.000000 -0.017453 -0.999848
vn 0.000000 -0.017453 -0.999848
vn 0.000000 0.017453 0.999848
vn 0.000000 0.017453 0.999848
vn 0.000000 0.999848 -0.017452
vn 0.000000 0.999848 -0.017452
vn 0.000000 -0.999848 0.017453
vn 0.000000 -0.999848 0.017453
vn -1.000000 0.000000 0.000000
vn -1.000000 0.000000 0.000000
vn 1.000000 0.000000 0.000000
vn 1.000000 -0.000000 0.000000
vn -0.000000 -0.017452 -0.999848
vn 0.000000 -0.017452 -0.999848
vn 0.000000 0.017452 0.999848
vn 0.000000 0.017452 0.999848
vn 0.000000 0.999848 -0.017452
vn 0.000000 0.999848 -0.017452
vn 0.000000 -0.999848 0.017453
vn 0.000000 -0.999848 0.017453
vn -1.000000 -0.000000 0.000000
vn -1.000000 0.000000 0.000000
vn 1.000000 0.000000 0.000000
vn 1.000000 -0.000000 0.000000
vn -0.000000 -0.017452 -0.999848
vn 0.000000 -0.017452 -0.999848
vn 0.000000 0.017452 0.999848
vn 0.000000 0.017452 0.999848
vn 0.000000 0.999848 -0.017453
vn 0.000000 0.999848 -0.017453
vn 0.000000 -0.999848 0.017452
vn 0.000000 -0.999848 0.017452
vn -1.000000 -0.000000 0.000000
vn -1.000000 0.000000 0.000000
vn 1.000000 0.000000 0.000000
vn 1.000000 -0.000000 0.000000
vn -0.000000 -0.017452 -0.999848
vn 0.000000 -0.017452 -0.999848
vn 0.000000 0.017452 0.999848
vn 0.000000 0.017452 0.999848
vn 0.000000 0.999848 -0.017452
vn 0.000000 0.999848 -0.017452
vn 0.000000 -0.999848 0.017453
vn 0.000000 -0.999848 0.017453
vn -1.000000 -0.000000 0.000000
vn -1.000000 0.000000 0.000000
vn 1.000000 0.000000 0.000000
vn 1.000000 -0.000000 0.000000
vn -0.000000 -0.017452 -0.999848
vn 0.000000 -0.017452 -0.999848
vn 0.000000 0.017452 0.999848
vn 0.000000 0.017452 0.999848
vn 0.000000 0.999848 -0.017452
vn 0.000000 0.999848 -0.017452
vn 0.000000 -0.999848 0.017453
vn 0.000000 -0.999848 0.017453
g Cube039
f 1//1 2//1 3//1
f 4//2 2//2 1//2
f 5//3 6//3 7//3
f 5//4 8//4 6//4
f 8//5 5//5 4//5
f 4//6 5//6 2//6
f 7//7 6//7 1//7
f 7//8 1//8 3//8
f 1//9 6//9 4//9
f 4//10 6//10 8//10
f 7//11 3//11 2//11
f 7//12 2//12 5//12
g Cube017
f 9//13 10//13 11//13
f 10//14 12//14 11//14
f 13//15 14//15 15//15
f 13//16 16//16 14//16
f 10//17 16//17 12//17
f 16//18 13//18 12//18
f 14//19 9//19 11//19
f 15//20 14//20 11//20
f 10//21 9//21 16//21
f 9//22 14//22 16//22
f 15//23 11//23 12//23
f 15//24 12//24 13//24
g Cube024
f 17//25 18//25 19//25
f 20//26 18//26 17//26
f 21//27 22//27 23//27
f 21//28 24//28 22//28
f 20//29 24//29 18//29
f 24//30 21//30 18//30
f 22//31 17//31 19//31
f 23//32 22//32 19//32
f 17//33 22//33 20//33
f 20//34 22//34 24//34
f 23//35 19//35 18//35
f 23//36 18//36 21//36
g Cube026
f 25//37 26//37 27//37
f 25//38 28//38 26//38
f 29//39 30//39 31//39
f 32//40 30//40 29//40
f 30//41 32//41 25//41
f 25//42 32//42 28//42
f 29//43 31//43 27//43
f 29//44 27//44 26//44
f 27//45 30//45 25//45
f 27//46 31//46 30//46
f 32//47 26//47 28//47
f 29//48 26//48 32//48
g Cube029
f 33//49 34//49 35//49
f 36//50 34//50 33//50
f 37//51 38//51 39//51
f 37//52 40//52 38//52
f 40//53 37//53 36//53
f 36//54 37//54 34//54
f 39//55 38//55 33//55
f 39//56 33//56 35//56
f 33//57 38//57 36//57
f 36//58 38//58 40//58
f 39//59 35//59 34//59
f 39//60 34//60 37//60
g Cube021
f 41//61 42//61 43//61
f 44//62 42//62 41//62
f 45//63 46//63 47//63
f 45//64 48//64 46//64
f 48//65 45//65 44//65
f 44//66 45//66 42//66
f 47//67 46//67 41//67
f 47//68 41//68 43//68
f 41//69 46//69 44//69
f 44//70 46//70 48//70
f 47//71 43//71 42//71
f 47//72 42//72 45//72
g Cube005
f 49//73 50//73 51//73
f 52//74 50//74 49//74
f 53//75 54//75 55//75
f 53//76 56//76 54//76
f 56//77 53//77 52//77
f 52//78 53//78 50//78
f 55//79 54//79 49//79
f 55//80 49//80 51//80
f 49//81 54//81 52//81
f 52//82 54//82 56//82
f 55//83 51//83 50//83
f 55//84 50//84 53//84
g Cube006
f 57//85 58//85 59//85
f 57//86 60//86 58//86
f 61//87 62//87 63//87
f 64//88 62//88 61//88
f 62//89 64//89 57//89
f 57//90 64//90 60//90
f 61//91 63//91 59//91
f 61//92 59//92 58//92
f 59//93 63//93 57//93
f 57//94 63//94 62//94
f 61//95 58//95 60//95
f 61//96 60//96 64//96
g Cube007
f 65//97 66//97 67//97
f 68//98 66//98 65//98
f 69//99 70//99 71//99
f 69//100 72//100 70//100
f 72//101 69//101 68//101
f 68//102 69//102 66//102
f 71//103 70//103 65//103
f 71//104 65//104 67//104
f 65//105 70//105 68//105
f 68//106 70//106 72//106
f 71//107 67//107 66//107
f 71//108 66//108 69//108
g Cube008
f 73//109 74//109 75//109
f 76//110 74//110 73//110
f 77//111 78//111 79//111
f 77//112 80//112 78//112
f 80//113 77//113 76//113
f 76//114 77//114 74//114
f 79//115 78//115 73//115
f 79//116 73//116 75//116
f 76//117 73//117 80//117
f 73//118 78//118 80//118
f 75//119 74//119 77//119
f 79//120 75//120 77//120
g Cube004
f 81//121 82//121 83//121
f 84//122 82//122 81//122
f 85//123 86//123 87//123
f 85//124 88//124 86//124
f 88//125 85//125 84//125
f 84//126 85//126 82//126
f 87//127 86//127 81//127
f 87//128 81//128 83//128
f 81//129 86//129 84//129
f 84//130 86//130 88//130
f 87//131 83//131 82//131
f 87//132 82//132 85//132
g Cube016
f 89//133 90//133 91//133
f 92//134 90//134 89//134
f 93//135 94//135 95//135
f 93//136 96//136 94//136
f 96//137 93//137 92//137
f 92//138 93//138 90//138
f 95//139 94//139 89//139
f 95//140 89//140 91//140
f 89//141 94//141 92//141
f 92//142 94//142 96//142
f 95//143 91//143 90//143
f 95//144 90//144 93//144
g Cube015
f 97//145 98//145 99//145
f 100//146 98//146 97//146
f 101//147 102//147 103//147
f 101//148 104//148 102//148
f 104//149 101//149 100//149
f 100//150 101//150 98//150
f 103//151 102//151 97//151
f 103//152 97//152 99//152
f 97//153 104//153 100//153
f 97//154 102//154 104//154
f 101//155 99//155 98//155
f 103//156 99//156 101//156
g Cube020
f 105//157 106//157 107//157
f 108//158 106//158 105//158
f 109//159 110//159 111//159
f 109//160 112//160 110//160
f 112//161 109//161 108//161
f 108//162 109//162 106//162
f 111//163 110//163 105//163
f 111//164 105//164 107//164
f 105//165 110//165 108//165
f 108//166 110//166 112//166
f 111//167 107//167 106//167
f 111//168 106//168 109//168
g Cube018
f 113//169 114//169 115//169
f 116//170 114//170 113//170
f 117//171 118//171 119//171
f 117//172 120//172 118//172
f 120//173 117//173 116//173
f 116//174 117//174 114//174
f 119//175 118//175 113//175
f 119//176 113//176 115//176
f 116//177 113//177 120//177
f 113//178 118//178 120//178
f 115//179 114//179 117//179
f 119//180 115//180 117//180
g Cube023
f 121//181 122//181 123//181
f 121//182 124//182 122//182
f 125//183 126//183 127//183
f 128//184 126//184 125//184
f 126//185 128//185 121//185
f 121//186 128//186 124//186
f 125//187 127//187 123//187
f 125//188 123//188 122//188
f 121//189 123//189 126//189
f 123//190 127//190 126//190
f 122//191 124//191 128//191
f 125//192 122//192 128//192
g Cube019
f 129//193 130//193 131//193
f 132//194 130//194 129//194
f 133//195 134//195 135//195
f 133//196 136//196 134//196
f 136//197 133//197 132//197
f 132//198 133//198 130//198
f 135//199 134//199 129//199
f 135//200 129//200 131//200
f 129//201 134//201 132//201
f 132//202 134//202 136//202
f 135//203 131//203 130//203
f 135//204 130//204 133//204
g Cube025
f 137//205 138//205 139//205
f 137//206 140//206 138//206
f 141//207 142//207 143//207
f 144//208 142//208 141//208
f 142//209 144//209 137//209
f 137//210 144//210 140//210
f 141//211 143//211 139//211
f 141//212 139//212 138//212
f 139//213 143//213 137//213
f 137//214 143//214 142//214
f 141//215 138//215 140//215
f 141//216 140//216 144//216
g Cube027
f 145//217 146//217 147//217
f 148//218 146//218 145//218
f 149//219 150//219 151//219
f 149//220 152//220 150//220
f 152//221 149//221 148//221
f 148//222 149//222 146//222
f 151//223 150//223 145//223
f 151//224 145//224 147//224
f 145//225 152//225 148//225
f 145//226 150//226 152//226
f 149//227 147//227 146//227
f 151//228 147//228 149//228
g Cube030
f 153//229 154//229 155//229
f 156//230 154//230 153//230
f 157//231 158//231 159//231
f 157//232 160//232 158//232
f 160//233 157//233 156//233
f 156//234 157//234 154//234
f 159//235 158//235 153//235
f 159//236 153//236 155//236
f 153//237 158//237 156//237
f 156//238 158//238 160//238
f 159//239 155//239 154//239
f 159//240 154//240 157//240
g Cube040
f 161//241 162//241 163//241
f 164//242 162//242 161//242
f 165//243 166//243 167//243
f 165//244 168//244 166//244
f 168//245 162//245 164//245
f 168//246 165//246 162//246
f 163//247 166//247 161//247
f 167//248 166//248 163//248
f 161//249 166//249 164//249
f 164//250 166//250 168//250
f 167//251 163//251 162//251
f 167//252 162//252 165//252
