# Created by FreeCAD <http://www.freecadweb.org>
v -59.400002 2702.413330 -261.554474
v -59.400002 2418.184570 -157.578171
v -59.400002 2704.141113 -162.569565
v -59.400002 2416.456787 -256.563110
v 521.599976 2418.184570 -157.578171
v 521.599976 2702.413330 -261.554474
v 521.599976 2704.141113 -162.569565
v 521.599976 2416.456787 -256.563110
v -540.500000 2073.159668 -207.564270
v -540.500000 1908.252319 -372.711395
v -540.500000 1911.184326 -204.736984
v -540.500000 2070.227783 -375.538696
v -423.500000 1908.252319 -372.711395
v -423.500000 2073.159668 -207.564270
v -423.500000 1911.184326 -204.736984
v -423.500000 2070.227783 -375.538696
v -24.400000 2673.848877 -179.043396
v -24.400000 2389.199219 -271.089600
v -24.400000 2390.892090 -174.104370
v -24.400000 2672.156006 -276.028625
v 175.600006 2389.199219 -271.089600
v 175.600006 2673.848877 -179.043396
v 175.600006 2390.892090 -174.104370
v 175.600006 2672.156006 -276.028625
v 225.600006 2409.031982 -142.500778
v 225.600006 1867.840942 -290.832794
v 225.600006 1864.696045 -278.218964
v 225.600006 2412.177002 -155.114624
v 522.599976 1867.840942 -290.832794
v 522.599976 2409.031982 -142.500778
v 522.599976 1864.696045 -278.218964
v 522.599976 2412.177002 -155.114624
v -804.400024 2418.529053 -481.633545
v -804.400024 2010.827759 -174.471390
v -804.400024 2423.764893 -181.679230
v -804.400024 2005.592041 -474.425690
v 209.600006 2010.827759 -174.471390
v 209.600006 2418.529053 -481.633545
v 209.600006 2423.764893 -181.679230
v 209.600006 2005.592041 -474.425690
v -44.400002 2712.132568 -277.726563
v -44.400002 1574.577759 -356.885559
v -44.400002 1576.305542 -257.900635
v -44.400002 2710.404785 -376.711487
v 522.599976 1574.577759 -356.885559
v 522.599976 2712.132568 -277.726563
v 522.599976 1576.305542 -257.900635
v 522.599976 2710.404785 -376.711487
v -427.119995 2011.413818 -495.000427
v -458.021698 1574.140503 -392.247650
v -458.021698 2013.073608 -399.909271
v -427.119995 1572.480713 -487.338837
v -50.018456 1576.454102 -259.699554
v -19.116755 2013.727417 -362.452332
v -50.018456 2015.387329 -267.361176
v -19.116755 1574.794312 -354.790741
v -45.400002 2014.792236 -176.540894
v -45.400002 1904.936279 -224.630966
v -45.400002 1905.808838 -174.638580
v -45.400002 2013.919678 -226.533279
v 207.600006 1904.936279 -224.630966
v 207.600006 2014.792236 -176.540894
v 207.600006 1905.808838 -174.638580
v 207.600006 2013.919678 -226.533279
v -805.500000 2041.705566 -176.010513
v -805.500000 1576.048462 -266.897522
v -805.500000 1577.776245 -167.912598
v -805.500000 2039.977783 -274.995453
v -534.500000 1576.048462 -266.897522
v -534.500000 2041.705566 -176.010513
v -534.500000 1577.776245 -167.912598
v -534.500000 2039.977783 -274.995453
vn -1.000000 0.000000 0.000000
vn -1.000000 0.000000 0.000000
vn 1.000000 0.000000 0.000000
vn 1.000000 -0.000000 0.000000
vn 0.000000 -0.017452 -0.999848
vn 0.000000 -0.017452 -0.999848
vn 0.000000 0.017452 0.999848
vn 0.000000 0.017452 0.999848
vn 0.000000 0.999848 -0.017452
vn 0.000000 0.999848 -0.017452
vn 0.000000 -0.999848 0.017452
vn 0.000000 -0.999848 0.017452
vn -1.000000 -0.000000 0.000000
vn -1.000000 0.000000 0.000000
vn 1.000000 0.000000 0.000000
vn 1.000000 -0.000000 0.000000
vn -0.000000 -0.017452 -0.999848
vn 0.000000 -0.017452 -0.999848
vn 0.000000 0.017452 0.999848
vn 0.000000 0.017452 0.999848
vn 0.000000 0.999848 -0.017452
vn 0.000000 0.999848 -0.017452
vn 0.000000 -0.999848 0.017452
vn 0.000000 -0.999848 0.017452
vn -1.000000 -0.000000 0.000000
vn -1.000000 0.000000 0.000000
vn 1.000000 0.000000 0.000000
vn 1.000000 -0.000000 0.000000
vn -0.000000 -0.017452 -0.999848
vn 0.000000 -0.017452 -0.999848
vn 0.000000 0.017452 0.999848
vn 0.000000 0.017452 0.999848
vn 0.000000 0.999848 -0.017452
vn 0.000000 0.999848 -0.017452
vn 0.000000 -0.999848 0.017452
vn 0.000000 -0.999848 0.017452
vn -1.000000 0.000000 0.000000
vn -1.000000 -0.000000 0.000000
vn 1.000000 0.000000 -0.000000
vn 1.000000 0.000000 0.000000
vn 0.000000 0.241922 -0.970296
vn 0.000000 0.241922 -0.970296
vn 0.000000 -0.241922 0.970296
vn 0.000000 -0.241922 0.970296
vn -0.000000 0.970295 0.241924
vn -0.000000 0.970295 0.241924
vn -0.000000 -0.970297 -0.241916
vn 0.000000 -0.970297 -0.241916
vn -1.000000 0.000000 0.000000
vn -1.000000 0.000000 0.000000
vn 1.000000 0.000000 0.000000
vn 1.000000 -0.000000 0.000000
vn -0.000000 -0.017452 -0.999848
vn 0.000000 -0.017452 -0.999848
vn 0.000000 0.017452 0.999848
vn 0.000000 0.017452 0.999848
vn 0.000000 0.999848 -0.017453
vn 0.000000 0.999848 -0.017453
vn 0.000000 -0.999848 0.017452
vn 0.000000 -0.999848 0.017452
vn -1.000000 -0.000000 0.000000
vn -1.000000 0.000000 0.000000
vn 1.000000 0.000000 0.000000
vn 1.000000 -0.000000 0.000000
vn -0.000000 -0.017452 -0.999848
vn 0.000000 -0.017452 -0.999848
vn 0.000000 0.017452 0.999848
vn 0.000000 0.017452 0.999848
vn 0.000000 0.999848 -0.017452
vn 0.000000 0.999848 -0.017452
vn 0.000000 -0.999848 0.017452
vn 0.000000 -0.999848 0.017452
vn -0.951056 -0.005393 -0.308970
vn -0.951056 -0.005393 -0.308970
vn 0.951057 0.005393 0.308970
vn 0.951057 0.005393 0.308970
vn 0.309017 -0.016598 -0.950912
vn 0.309017 -0.016598 -0.950912
vn -0.309017 0.016598 0.950912
vn -0.309017 0.016598 0.950912
vn -0.000000 0.999848 -0.017452
vn 0.000000 0.999848 -0.017453
vn 0.000000 -0.999848 0.017452
vn 0.000000 -0.999848 0.017452
vn -1.000000 -0.000000 0.000000
vn -1.000000 0.000000 0.000000
vn 1.000000 0.000000 0.000000
vn 1.000000 -0.000000 0.000000
vn -0.000000 -0.017452 -0.999848
vn 0.000000 -0.017452 -0.999848
vn 0.000000 0.017452 0.999848
vn 0.000000 0.017452 0.999848
vn 0.000000 0.999848 -0.017451
vn 0.000000 0.999848 -0.017451
vn 0.000000 -0.999848 0.017451
vn 0.000000 -0.999848 0.017451
vn -1.000000 -0.000000 0.000000
vn -1.000000 0.000000 0.000000
vn 1.000000 0.000000 0.000000
vn 1.000000 -0.000000 0.000000
vn -0.000000 -0.017452 -0.999848
vn 0.000000 -0.017452 -0.999848
vn 0.000000 0.017452 0.999848
vn 0.000000 0.017452 0.999848
vn 0.000000 0.999848 -0.017452
vn 0.000000 0.999848 -0.017452
vn 0.000000 -0.999848 0.017452
vn 0.000000 -0.999848 0.017452
g Cube009
f 1//1 2//1 3//1
f 1//2 4//2 2//2
f 5//3 6//3 7//3
f 8//4 6//4 5//4
f 1//5 6//5 4//5
f 6//6 8//6 4//6
f 7//7 3//7 2//7
f 5//8 7//8 2//8
f 3//9 7//9 1//9
f 1//10 7//10 6//10
f 5//11 2//11 4//11
f 5//12 4//12 8//12
g Cube002
f 9//13 10//13 11//13
f 12//14 10//14 9//14
f 13//15 14//15 15//15
f 13//16 16//16 14//16
f 16//17 13//17 12//17
f 12//18 13//18 10//18
f 15//19 14//19 9//19
f 15//20 9//20 11//20
f 9//21 14//21 12//21
f 12//22 14//22 16//22
f 15//23 11//23 10//23
f 15//24 10//24 13//24
g Cube010
f 17//25 18//25 19//25
f 20//26 18//26 17//26
f 21//27 22//27 23//27
f 21//28 24//28 22//28
f 24//29 21//29 20//29
f 20//30 21//30 18//30
f 23//31 22//31 17//31
f 23//32 17//32 19//32
f 17//33 22//33 20//33
f 20//34 22//34 24//34
f 23//35 19//35 18//35
f 23//36 18//36 21//36
g Cube011
f 25//37 26//37 27//37
f 28//38 26//38 25//38
f 29//39 30//39 31//39
f 29//40 32//40 30//40
f 32//41 26//41 28//41
f 32//42 29//42 26//42
f 27//43 30//43 25//43
f 31//44 30//44 27//44
f 25//45 30//45 28//45
f 28//46 30//46 32//46
f 31//47 27//47 26//47
f 31//48 26//48 29//48
g Cube
f 33//49 34//49 35//49
f 33//50 36//50 34//50
f 37//51 38//51 39//51
f 40//52 38//52 37//52
f 38//53 40//53 33//53
f 33//54 40//54 36//54
f 37//55 39//55 35//55
f 37//56 35//56 34//56
f 35//57 39//57 33//57
f 33//58 39//58 38//58
f 37//59 34//59 36//59
f 37//60 36//60 40//60
g Cube013
f 41//61 42//61 43//61
f 44//62 42//62 41//62
f 45//63 46//63 47//63
f 45//64 48//64 46//64
f 48//65 45//65 44//65
f 44//66 45//66 42//66
f 47//67 46//67 41//67
f 47//68 41//68 43//68
f 41//69 46//69 44//69
f 44//70 46//70 48//70
f 47//71 43//71 42//71
f 47//72 42//72 45//72
g Cube012
f 49//73 50//73 51//73
f 49//74 52//74 50//74
f 53//75 54//75 55//75
f 56//76 54//76 53//76
f 54//77 56//77 49//77
f 49//78 56//78 52//78
f 53//79 55//79 51//79
f 53//80 51//80 50//80
f 51//81 55//81 49//81
f 49//82 55//82 54//82
f 53//83 50//83 52//83
f 53//84 52//84 56//84
g Cube014
f 57//85 58//85 59//85
f 60//86 58//86 57//86
f 61//87 62//87 63//87
f 61//88 64//88 62//88
f 64//89 61//89 60//89
f 60//90 61//90 58//90
f 63//91 62//91 57//91
f 63//92 57//92 59//92
f 57//93 62//93 60//93
f 60//94 62//94 64//94
f 63//95 59//95 58//95
f 63//96 58//96 61//96
g Cube001
f 65//97 66//97 67//97
f 68//98 66//98 65//98
f 69//99 70//99 71//99
f 69//100 72//100 70//100
f 72//101 69//101 68//101
f 68//102 69//102 66//102
f 71//103 70//103 65//103
f 71//104 65//104 67//104
f 65//105 72//105 68//105
f 65//106 70//106 72//106
f 69//107 67//107 66//107
f 71//108 67//108 69//108
