# Created by FreeCAD <http://www.freecadweb.org>
v -152.356445 -35.653839 -0.000000
v -152.356445 -123.797516 -0.000000
v -66.711472 -123.797516 -0.000000
v -66.711472 -35.653839 -0.000000
v 18.933498 -123.797516 -0.000000
v 18.933498 -35.653839 -0.000000
v 104.578461 -123.797516 -0.000000
v 104.578461 -35.653839 -0.000000
v 190.223434 -123.797516 -0.000000
v 190.223434 -35.653839 -0.000000
v -152.356445 52.489841 0.000000
v -66.711472 52.489841 0.000000
v 18.933498 52.489841 0.000000
v 104.578461 52.489841 0.000000
v 190.223434 52.489841 0.000000
v -152.356445 140.633530 0.000000
v -66.711472 140.633530 0.000000
v 18.933498 140.633530 0.000000
v 104.578461 140.633530 0.000000
v 190.223434 140.633530 0.000000
v -152.356445 228.777206 0.000000
v -66.711472 228.777206 0.000000
v 18.933498 228.777206 0.000000
v 104.578461 228.777206 0.000000
v 190.223434 228.777206 0.000000
vn 0.000000 -0.000000 1.000000
vn 0.000000 -0.000000 1.000000
vn 0.000000 -0.000000 1.000000
vn 0.000000 -0.000000 1.000000
vn 0.000000 -0.000000 1.000000
vn 0.000000 -0.000000 1.000000
vn 0.000000 -0.000000 1.000000
vn 0.000000 -0.000000 1.000000
vn 0.000000 -0.000000 1.000000
vn 0.000000 -0.000000 1.000000
vn 0.000000 -0.000000 1.000000
vn 0.000000 -0.000000 1.000000
vn 0.000000 -0.000000 1.000000
vn 0.000000 -0.000000 1.000000
vn 0.000000 -0.000000 1.000000
vn 0.000000 -0.000000 1.000000
vn 0.000000 -0.000000 1.000000
vn 0.000000 -0.000000 1.000000
vn 0.000000 -0.000000 1.000000
vn 0.000000 -0.000000 1.000000
vn 0.000000 -0.000000 1.000000
vn 0.000000 -0.000000 1.000000
vn 0.000000 -0.000000 1.000000
vn 0.000000 -0.000000 1.000000
vn 0.000000 -0.000000 1.000000
vn 0.000000 -0.000000 1.000000
vn 0.000000 -0.000000 1.000000
vn 0.000000 -0.000000 1.000000
vn 0.000000 -0.000000 1.000000
vn 0.000000 -0.000000 1.000000
vn 0.000000 -0.000000 1.000000
vn 0.000000 -0.000000 1.000000
f 1//1 2//1 3//1
f 3//2 4//2 1//2
f 4//3 3//3 5//3
f 5//4 6//4 4//4
f 6//5 5//5 7//5
f 7//6 8//6 6//6
f 8//7 7//7 9//7
f 9//8 10//8 8//8
f 11//9 1//9 4//9
f 4//10 12//10 11//10
f 12//11 4//11 6//11
f 6//12 13//12 12//12
f 13//13 6//13 8//13
f 8//14 14//14 13//14
f 14//15 8//15 10//15
f 10//16 15//16 14//16
f 16//17 11//17 12//17
f 12//18 17//18 16//18
f 17//19 12//19 13//19
f 13//20 18//20 17//20
f 18//21 13//21 14//21
f 14//22 19//22 18//22
f 19//23 14//23 15//23
f 15//24 20//24 19//24
f 21//25 16//25 17//25
f 17//26 22//26 21//26
f 22//27 17//27 18//27
f 18//28 23//28 22//28
f 23//29 18//29 19//29
f 19//30 24//30 23//30
f 24//31 19//31 20//31
f 20//32 25//32 24//32
